# xmcd CD database file
#
# Track frame offsets:
#	150
#	16362
#	27757
#	43970
#
# Disc length: 735 seconds
#
# Revision: 0
# Processed by: cddbd v1.5.1PL0 Copyright (c) Steve Scherf et al.
# Submitted via: CDex 1.51
#
DISCID=2a02dd04
DTITLE=水木一郎 - ほえろ！ ボイスラッガー
DYEAR=1999
DGENRE=Anime
TTITLE0=ほえろ！ ボイスラッガー
TTITLE1=ボイスラッガー・アクション
TTITLE2=ほえろ！ ボイスラッガー (instrumental)
TTITLE3=ボイスラッガー・アクション (instrumental)
EXTD=YEAR: 1999
EXTT0=
EXTT1=
EXTT2=
EXTT3=
PLAYORDER=
